<svg width="41" height="17" viewBox="0 0 41 17" fill="none" xmlns="http://www.w3.org/2000/svg">
<path d="M3.16086 13.5198H4.73086C4.76477 13.5201 4.79765 13.5081 4.8234 13.4861C4.84915 13.464 4.86601 13.4333 4.87086 13.3997L5.22086 11.5798H6.44086C6.95154 11.5922 7.46103 11.5247 7.95086 11.3798C8.34752 11.2482 8.70971 11.0295 9.01086 10.7398C9.28083 10.4965 9.50741 10.2091 9.68086 9.88975C9.85254 9.57735 9.97402 9.23989 10.0409 8.88975C10.1471 8.52283 10.1653 8.13602 10.0941 7.76073C10.0229 7.38544 9.86416 7.03222 9.63086 6.72975C9.36054 6.45507 9.03335 6.2429 8.67229 6.10815C8.31123 5.9734 7.92504 5.91933 7.54086 5.94975H4.54086C4.50487 5.95137 4.47048 5.96509 4.44326 5.98868C4.41604 6.01227 4.39758 6.04436 4.39086 6.07975L3.01086 13.3398C2.99638 13.3819 2.99638 13.4276 3.01086 13.4697C3.02994 13.4896 3.05356 13.5045 3.07969 13.5133C3.10582 13.522 3.13367 13.5242 3.16086 13.5198ZM6.01086 7.35975H7.01086C7.20111 7.33419 7.39454 7.34667 7.57994 7.39645C7.76533 7.44623 7.939 7.53233 8.09086 7.64975C8.26086 7.82975 8.29086 8.16975 8.20086 8.64975C8.15158 9.07944 7.94924 9.47702 7.63086 9.76975C7.2348 10.0205 6.7682 10.1363 6.30086 10.0998H5.50086L6.01086 7.35975ZM15.8109 6.40975C15.2695 6.01174 14.5992 5.82989 13.9309 5.89975H12.7409L13.0709 4.13975C13.0806 4.11947 13.0857 4.09725 13.0857 4.07475C13.0857 4.05225 13.0806 4.03003 13.0709 4.00975C13.0353 3.99675 12.9964 3.99675 12.9609 4.00975H11.3909C11.3569 4.0094 11.3241 4.02138 11.2983 4.04345C11.2726 4.06552 11.2557 4.09618 11.2509 4.12975L9.87086 11.3998C9.86122 11.4183 9.85618 11.4389 9.85618 11.4598C9.85618 11.4806 9.86122 11.5012 9.87086 11.5198C9.88265 11.5382 9.89892 11.5534 9.91815 11.5639C9.93738 11.5744 9.95895 11.5798 9.98086 11.5798H11.5209C11.5563 11.5798 11.5905 11.5665 11.6165 11.5423C11.6425 11.5182 11.6583 11.4851 11.6609 11.4498L12.4309 7.37975H13.5409C13.9909 7.37975 14.1509 7.47975 14.2009 7.53975C14.2421 7.6379 14.2634 7.74329 14.2634 7.84975C14.2634 7.95621 14.2421 8.06161 14.2009 8.15975L13.5909 11.3998C13.5812 11.4183 13.5762 11.4389 13.5762 11.4598C13.5762 11.4806 13.5812 11.5012 13.5909 11.5198C13.6033 11.5376 13.6197 11.5523 13.6388 11.5627C13.6579 11.5732 13.6791 11.579 13.7009 11.5798H15.2609C15.2968 11.5781 15.3312 11.5644 15.3585 11.5408C15.3857 11.5172 15.4041 11.4851 15.4109 11.4498L16.0509 8.04975C16.1541 7.77863 16.1863 7.48559 16.1443 7.19852C16.1023 6.91145 15.9875 6.63992 15.8109 6.40975ZM20.3309 5.89975H17.2009C17.1825 5.89839 17.164 5.90068 17.1465 5.90648C17.129 5.91229 17.1128 5.92149 17.0988 5.93357C17.0849 5.94565 17.0735 5.96037 17.0652 5.97687C17.057 5.99338 17.0521 6.01135 17.0509 6.02975L15.5909 13.3398C15.5818 13.3602 15.5771 13.3824 15.5771 13.4048C15.5771 13.4271 15.5818 13.4493 15.5909 13.4697C15.6043 13.4858 15.6212 13.4986 15.6402 13.5072C15.6592 13.5159 15.68 13.5202 15.7009 13.5198H17.3309C17.3664 13.5227 17.4018 13.5118 17.4297 13.4895C17.4576 13.4672 17.4759 13.4351 17.4809 13.3997L17.8509 11.5798H19.1209C19.6479 11.591 20.1737 11.5236 20.6809 11.3798C21.1175 11.2583 21.5209 11.0395 21.8609 10.7398C22.1401 10.4976 22.3768 10.2103 22.5609 9.88975C22.7345 9.57727 22.8593 9.24002 22.9309 8.88975C23.0399 8.52249 23.0586 8.13435 22.9855 7.7583C22.9124 7.38225 22.7495 7.0294 22.5109 6.72975C22.2285 6.44283 21.8876 6.22016 21.5114 6.07692C21.1352 5.93369 20.7325 5.87326 20.3309 5.89975ZM20.9509 8.66975C20.891 9.10276 20.6782 9.50006 20.3509 9.78975C19.9405 10.0417 19.4609 10.1572 18.9809 10.1198H18.1809L18.7209 7.35975H19.7209C20.1206 7.31076 20.5241 7.41431 20.8509 7.64975C21.0109 7.82975 21.0109 8.16975 20.9509 8.66975Z" fill="#4D588E"/>
<path d="M30.2087 3.29975C29.8301 3.29935 29.4552 3.37353 29.1052 3.51805C28.7553 3.66257 28.4373 3.8746 28.1693 4.14204C27.9013 4.40947 27.6886 4.72707 27.5433 5.0767C27.3981 5.42633 27.3231 5.80115 27.3227 6.17975V12.5867C27.3222 13.1579 27.0949 13.7056 26.6909 14.1093C26.2868 14.513 25.7389 14.7397 25.1677 14.7397C24.8847 14.74 24.6045 14.6845 24.3429 14.5765C24.0813 14.4684 23.8436 14.3099 23.6433 14.11C23.443 13.9101 23.2841 13.6726 23.1755 13.4113C23.067 13.1499 23.011 12.8697 23.0107 12.5867C23.0107 12.3795 23.0931 12.1807 23.2396 12.0341C23.3862 11.8876 23.585 11.8052 23.7922 11.8052C23.9995 11.8052 24.1983 11.8876 24.3448 12.0341C24.4914 12.1807 24.5737 12.3795 24.5737 12.5867C24.5737 12.7442 24.6363 12.8951 24.7476 13.0064C24.8589 13.1177 25.0098 13.1802 25.1672 13.1802C25.3246 13.1802 25.4756 13.1177 25.5869 13.0064C25.6982 12.8951 25.7607 12.7442 25.7607 12.5867V6.18075C25.7611 5.59707 25.8765 5.01919 26.1003 4.4801C26.324 3.94101 26.6518 3.45129 27.0648 3.03889C27.4779 2.62649 27.9681 2.2995 28.5076 2.07659C29.047 1.85368 29.6251 1.73922 30.2087 1.73975C31.1722 1.73944 32.1097 2.05182 32.8804 2.62995C33.6511 3.20807 34.2134 4.02071 34.4827 4.94575C35.6958 4.9834 36.8465 5.49149 37.6916 6.36251C38.5367 7.23353 39.0098 8.39915 39.0107 9.61275C39.0103 9.65087 39.0076 9.68893 39.0027 9.72675C39.0076 9.7649 39.0103 9.80329 39.0107 9.84175V13.9597C39.0107 14.3897 38.6607 14.7397 38.2297 14.7397H30.2087C30.1062 14.7399 30.0047 14.7198 29.9099 14.6807C29.8152 14.6415 29.7291 14.5841 29.6566 14.5116C29.584 14.4392 29.5265 14.3532 29.4872 14.2585C29.448 14.1638 29.4277 14.0623 29.4277 13.9597V9.84175C29.4277 9.41075 29.7777 9.06175 30.2077 9.06175C30.5864 9.06214 30.9615 8.98793 31.3115 8.84335C31.6615 8.69876 31.9796 8.48664 32.2476 8.21911C32.5156 7.95157 32.7282 7.63385 32.8734 7.2841C33.0186 6.93436 33.0935 6.55943 33.0937 6.18075C33.0935 5.80215 33.0186 5.4273 32.8735 5.07762C32.7284 4.72794 32.5158 4.41027 32.2479 4.14274C31.98 3.87522 31.6621 3.66308 31.3122 3.51844C30.9623 3.3738 30.5873 3.29949 30.2087 3.29975ZM37.4567 9.72675C37.4519 9.68893 37.4492 9.65087 37.4487 9.61275C37.4487 8.84073 37.1616 8.09631 36.6432 7.52427C36.1247 6.95223 35.412 6.59346 34.6437 6.51775C34.5679 7.50014 34.1679 8.4295 33.5065 9.15985C32.8451 9.8902 31.9598 10.3801 30.9897 10.5527V13.1797H33.4377V11.4427C33.4377 11.2355 33.5201 11.0367 33.6666 10.8901C33.8132 10.7436 34.012 10.6612 34.2192 10.6612C34.4265 10.6612 34.6253 10.7436 34.7718 10.8901C34.9184 11.0367 35.0007 11.2355 35.0007 11.4427V13.1797H37.4487V9.84175C37.4487 9.80241 37.4514 9.76408 37.4567 9.72675Z" fill="#4D588E"/>
</svg>
