<svg width="50" height="50" viewBox="0 0 50 50" fill="none" xmlns="http://www.w3.org/2000/svg">
<path d="M0 25C0 32.2629 11.193 38.1512 25 38.1512C38.807 38.1512 50 32.2629 50 25C50 17.7371 38.8066 11.8488 25 11.8488C11.193 11.8488 0 17.7371 0 25Z" fill="url(#paint0_radial_11_4)"/>
<path d="M25 37.1746C38.2676 37.1746 49.0234 31.7234 49.0234 25C49.0234 18.2758 38.2676 12.8254 25 12.8254C11.7324 12.8254 0.976562 18.2758 0.976562 25C0.976562 31.7234 11.7324 37.1746 25 37.1746Z" fill="#777BB3"/>
<path d="M13.5828 26.5094C14.6738 26.5094 15.4879 26.3082 16.0031 25.9117C16.5133 25.5188 16.8652 24.8387 17.05 23.8902C17.2219 23.0035 17.1562 22.3848 16.8547 22.0504C16.5469 21.709 15.8809 21.5359 14.8754 21.5359H13.1316L12.1656 26.5094H13.5828ZM7.88007 32.6355C7.84006 32.6355 7.80056 32.6266 7.76441 32.6095C7.72825 32.5923 7.69633 32.5674 7.67094 32.5365C7.64555 32.5056 7.62731 32.4694 7.61755 32.4306C7.60778 32.3918 7.60672 32.3514 7.61445 32.3121L10.1758 19.1332C10.1879 19.0716 10.221 19.0161 10.2694 18.9761C10.3178 18.9362 10.3786 18.9142 10.4414 18.9141H15.9625C17.6976 18.9141 18.9891 19.3852 19.8012 20.3145C20.6168 21.248 20.8691 22.5543 20.55 24.1953C20.4199 24.8637 20.1965 25.4844 19.8859 26.0406C19.5627 26.6128 19.1502 27.1297 18.6641 27.5719C18.066 28.1313 17.3891 28.5375 16.6535 28.7762C15.9301 29.0121 15.0004 29.1316 13.8918 29.1316H11.6559L11.0176 32.416C11.0055 32.4778 10.9724 32.5335 10.9238 32.5736C10.8752 32.6136 10.8141 32.6355 10.7512 32.6355H7.88007Z" fill="black"/>
<path d="M13.3555 21.807H14.8754C16.0891 21.807 16.5105 22.0734 16.6539 22.2324C16.891 22.4957 16.9363 23.0516 16.7832 23.8387C16.6117 24.7203 16.2937 25.3457 15.8379 25.6965C15.3715 26.0559 14.6121 26.2379 13.5828 26.2379H12.4945L13.3555 21.807ZM15.9625 18.643H10.4418C10.3159 18.643 10.1939 18.6867 10.0967 18.7668C9.99953 18.8468 9.93316 18.9581 9.90898 19.0816L7.34765 32.2609C7.33253 32.3394 7.33492 32.4203 7.35467 32.4978C7.37442 32.5753 7.41103 32.6474 7.46189 32.7091C7.51275 32.7708 7.57661 32.8205 7.6489 32.8546C7.72119 32.8888 7.80013 32.9065 7.88007 32.9066H10.7512C10.8771 32.9065 10.999 32.8627 11.0961 32.7826C11.1932 32.7025 11.2595 32.5911 11.2836 32.4676L11.8793 29.4027H13.8914C15.0289 29.4027 15.9867 29.2785 16.7379 29.034C17.5102 28.7832 18.2207 28.3578 18.8496 27.7695C19.356 27.3083 19.7857 26.7694 20.1227 26.173C20.4473 25.5922 20.6809 24.9438 20.816 24.2469C21.1519 22.5191 20.8789 21.1359 20.0051 20.1359C19.1394 19.1449 17.7793 18.6426 15.9625 18.6426V18.643ZM11.8363 26.7801H13.5828C14.7402 26.7801 15.6023 26.5625 16.1687 26.1258C16.7355 25.6898 17.1172 24.9617 17.3164 23.9418C17.5059 22.9621 17.4195 22.2711 17.0566 21.8684C16.693 21.466 15.9664 21.2645 14.8754 21.2645H12.9082L11.8363 26.7801ZM15.9629 19.1844C17.6238 19.1844 18.8352 19.6207 19.5969 20.4922C20.3586 21.3641 20.5875 22.5809 20.2844 24.143C20.1586 24.7867 19.9473 25.375 19.6496 25.9078C19.3512 26.4414 18.9621 26.9289 18.4812 27.3715C17.9078 27.9078 17.2715 28.2902 16.5703 28.518C15.8695 28.7461 14.9766 28.8598 13.8918 28.8598H11.4324L10.7516 32.3637H7.88047L10.4422 19.1844H15.9629Z" fill="white"/>
<path d="M27.1324 29.1316C27.0924 29.1317 27.0529 29.1229 27.0166 29.1058C26.9804 29.0888 26.9484 29.0639 26.9229 29.033C26.8975 29.0021 26.8792 28.966 26.8693 28.9272C26.8595 28.8884 26.8584 28.8479 26.866 28.8086L27.9988 22.9773C28.107 22.4227 28.0805 22.025 27.9246 21.8562C27.8289 21.7535 27.5422 21.5813 26.6941 21.5813H24.641L23.2168 28.9125C23.2046 28.9742 23.1713 29.0298 23.1226 29.0697C23.074 29.1096 23.0129 29.1314 22.95 29.1312H20.1024C20.0623 29.1313 20.0228 29.1225 19.9866 29.1054C19.9504 29.0884 19.9184 29.0636 19.8929 29.0328C19.8675 29.0019 19.8491 28.9659 19.8392 28.9271C19.8292 28.8883 19.828 28.8479 19.8356 28.8086L22.3973 15.6293C22.4094 15.5676 22.4426 15.5119 22.4912 15.472C22.5398 15.432 22.6008 15.4102 22.6637 15.4102H25.5113C25.5513 15.4101 25.5909 15.4189 25.6271 15.436C25.6633 15.453 25.6952 15.4778 25.7207 15.5086C25.7462 15.5395 25.7646 15.5755 25.7745 15.6143C25.7844 15.6531 25.7857 15.6935 25.7781 15.7328L25.1602 18.9141H27.3684C29.0508 18.9141 30.1914 19.2102 30.8559 19.8207C31.5328 20.443 31.7445 21.4379 31.484 22.7789L30.2922 28.9125C30.28 28.9742 30.2468 29.0297 30.1982 29.0696C30.1496 29.1095 30.0887 29.1313 30.0258 29.1312L27.1324 29.1316Z" fill="black"/>
<path d="M25.5117 15.1387H22.6637C22.5377 15.1387 22.4157 15.1825 22.3185 15.2626C22.2213 15.3427 22.155 15.4541 22.1309 15.5777L19.5695 28.7566C19.5543 28.8352 19.5567 28.9161 19.5764 28.9936C19.5961 29.0711 19.6327 29.1433 19.6836 29.2051C19.7345 29.2668 19.7983 29.3165 19.8707 29.3507C19.943 29.3849 20.022 29.4026 20.102 29.4027H22.95C23.0759 29.4027 23.198 29.3589 23.2952 29.2788C23.3924 29.1987 23.4587 29.0873 23.4828 28.9637L24.8645 21.8523H26.6934C27.5402 21.8523 27.7184 22.0332 27.725 22.0414C27.7766 22.0961 27.8441 22.352 27.7324 22.9258L26.5996 28.7566C26.5844 28.8352 26.5868 28.9162 26.6065 28.9937C26.6262 29.0713 26.6629 29.1435 26.7138 29.2052C26.7647 29.267 26.8286 29.3167 26.901 29.3508C26.9734 29.385 27.0524 29.4027 27.1324 29.4027H30.0262C30.1521 29.4026 30.274 29.3588 30.3711 29.2787C30.4682 29.1986 30.5345 29.0872 30.5586 28.9637L31.7504 22.8309C32.0297 21.391 31.7906 20.3113 31.0395 19.6211C30.3223 18.9625 29.1215 18.6426 27.3684 18.6426H25.4895L26.0445 15.7852C26.0598 15.7066 26.0575 15.6256 26.0378 15.548C26.0181 15.4704 25.9814 15.3981 25.9305 15.3363C25.8796 15.2745 25.8157 15.2248 25.7432 15.1906C25.6708 15.1564 25.5918 15.1387 25.5117 15.1387ZM25.5117 15.6816L24.8309 19.1848H27.3684C28.9648 19.1848 30.0664 19.4637 30.6719 20.0207C31.2785 20.5777 31.4598 21.4797 31.218 22.7277L30.0258 28.8602H27.1324L28.2656 23.0289C28.3945 22.3656 28.3469 21.9133 28.123 21.6719C27.8992 21.4309 27.4227 21.3102 26.6941 21.3102H24.4172L22.95 28.8598H20.1016L22.6633 15.6805H25.5117V15.6816Z" fill="white"/>
<path d="M35.9906 26.5094C37.0816 26.5094 37.8961 26.3082 38.4117 25.9117C38.9211 25.5188 39.2734 24.8387 39.4582 23.8902C39.6301 23.0035 39.5648 22.3848 39.2629 22.0504C38.9551 21.709 38.2891 21.5359 37.2836 21.5359H35.5402L34.5734 26.5094H35.9906ZM30.2891 32.6355C30.249 32.6356 30.2094 32.6268 30.1731 32.6097C30.1369 32.5926 30.1049 32.5677 30.0794 32.5368C30.0539 32.5059 30.0356 32.4697 30.0258 32.4308C30.016 32.392 30.0149 32.3514 30.0226 32.3121L32.584 19.1332C32.5961 19.0715 32.6293 19.0159 32.6779 18.9759C32.7265 18.9359 32.7875 18.9141 32.8504 18.9141H38.3711C40.1062 18.9141 41.3976 19.3852 42.2094 20.3145C43.0254 21.248 43.2773 22.5543 42.9582 24.1953C42.8362 24.8417 42.6122 25.4646 42.2945 26.0406C41.9711 26.6127 41.5587 27.1296 41.0726 27.5719C40.475 28.1313 39.7973 28.5375 39.0621 28.7762C38.3387 29.0121 37.409 29.1316 36.3 29.1316H34.0644L33.4266 32.416C33.4145 32.4779 33.3813 32.5336 33.3326 32.5737C33.2839 32.6138 33.2228 32.6356 33.1598 32.6355H30.2891Z" fill="black"/>
<path d="M35.7637 21.807H37.2836C38.4973 21.807 38.9187 22.0734 39.0617 22.2324C39.3 22.4957 39.3445 23.0516 39.1918 23.8387C39.0199 24.7203 38.702 25.3457 38.2461 25.6965C37.7793 26.0559 37.0199 26.2379 35.991 26.2379H34.9027L35.7637 21.807ZM38.3707 18.643H32.85C32.7242 18.6431 32.6023 18.6869 32.5052 18.7669C32.4081 18.8469 32.3417 18.9582 32.3176 19.0816L29.7559 32.2609C29.7407 32.3395 29.7431 32.4204 29.7629 32.4979C29.7827 32.5754 29.8193 32.6476 29.8702 32.7093C29.9211 32.7709 29.985 32.8206 30.0574 32.8547C30.1297 32.8889 30.2087 32.9066 30.2887 32.9066H33.1598C33.2856 32.9065 33.4076 32.8627 33.5047 32.7826C33.6018 32.7025 33.6681 32.5911 33.6922 32.4676L34.2879 29.4027H36.2996C37.4367 29.4027 38.3949 29.2785 39.1457 29.034C39.9184 28.7832 40.6289 28.3578 41.2582 27.7691C41.7644 27.308 42.194 26.7692 42.5309 26.173C42.8559 25.5922 43.0887 24.9438 43.2242 24.2469C43.5602 22.5191 43.2875 21.1359 42.4133 20.1359C41.5477 19.1449 40.1879 18.6426 38.3703 18.6426L38.3707 18.643ZM34.2445 26.7801H35.9906C37.1484 26.7801 38.0102 26.5625 38.5773 26.1258C39.1437 25.6898 39.5258 24.9617 39.7242 23.9418C39.9144 22.9621 39.8281 22.2711 39.4644 21.8684C39.1012 21.466 38.3742 21.2645 37.2836 21.2645H35.3168L34.2445 26.7801ZM38.3707 19.1844C40.0312 19.1844 41.2434 19.6207 42.0047 20.4922C42.7664 21.3641 42.9957 22.5809 42.6918 24.143C42.5668 24.7867 42.3551 25.375 42.0574 25.9078C41.7594 26.4414 41.3699 26.9289 40.8887 27.3715C40.3156 27.9078 39.6789 28.2902 38.9777 28.518C38.2773 28.7461 37.3848 28.8598 36.2996 28.8598H33.8406L33.159 32.3637H30.2879L32.8496 19.1844H38.3707Z" fill="white"/>
<defs>
<radialGradient id="paint0_radial_11_4" cx="0" cy="0" r="1" gradientUnits="userSpaceOnUse" gradientTransform="translate(15.0102 16.4723) scale(32.8287)">
<stop stop-color="#AEB2D5"/>
<stop offset="0.3" stop-color="#AEB2D5"/>
<stop offset="0.75" stop-color="#484C89"/>
<stop offset="1" stop-color="#484C89"/>
</radialGradient>
</defs>
</svg>
